# xmcd
#
# Track frame offsets:
#	150
#	10977
#	19950
#	33200
#	44467
#	55820
#	64990
#	76870
#	87330
#	101945
#	113985
#	124360
#	134105
#	144747
#	155107
#	164212
#	175775
#	190432
#	201095
#	212412
#	224200
#	233672
#	243112
#	255682
#	265360
#	278332
#	288912
#	300865
#
# Disc length: 4272
#
# Revision: 1
# Processed by: cddbd v1.5.1PL0 Copyright (c) Steve Scherf et al.
# Submitted via: audiograbber 1.82.02
# Normalized: r0:DSETVAR1
#
DISCID=a910ae1c
DTITLE=Various Artist - Slow Smooth And Groovy
DYEAR=1997
DGENRE=Swing
TTITLE0=Otis Williams - Walkin' After Midnight
TTITLE1=Alma Cogan - Comes Love
TTITLE2=Nat King Cole - Let's Make More Love
TTITLE3=The Commodores - Ridin' On A Train
TTITLE4=Nat King Cole - Angel Smile
TTITLE5=Jill Day - I Hear You Knockin'
TTITLE6=Nat Russell - Chocolata
TTITLE7=Julie London - Why Don't You Do Right
TTITLE8=Alma Cogan - Ticket To Ride
TTITLE9=Kay Starr - The Man Ipstairs
TTITLE10=Siw Malmkvist - Sermonette
TTITLE11=Alma Cogan - I Believe In Love
TTITLE12=Jill Corey - Happiness Street
TTITLE13=The Checkers - Somewhere Over The Rainbow
TTITLE14=Kenny Lee Martin - The Shape I'm In
TTITLE15=Bobby Troup - Five Days Sixty Minutes And Thirty Seconds
TTITLE16=La Vern Baker - On Revival Day
TTITLE17=The Four Esquires - Steam Heat
TTITLE18=Peggy Lee - Hallelujah
TTITLE19=Frankie Valli - Pollyanna
TTITLE20=Sonny Spencer - Gilee
TTITLE21=Clyde Mc Phatter - That's Enoufg For Me
TTITLE22=The Four Jacks - Sure Cure For The Blues
TTITLE23=Rusty Draper - Hole In My Sole
TTITLE24=The Dominioes - Tootsie Roll
TTITLE25=Billy Myles - Honey Bee
TTITLE26=Louis Armstrong - Spooks
TTITLE27=Dinah Shore - Yes Indeed
EXTD=Boogie Trainings und Turniermusik 25 bis 38 Takte
EXTT0=
EXTT1=
EXTT2=
EXTT3=
EXTT4=
EXTT5=
EXTT6=
EXTT7=
EXTT8=
EXTT9=
EXTT10=
EXTT11=
EXTT12=
EXTT13=
EXTT14=
EXTT15=
EXTT16=
EXTT17=
EXTT18=
EXTT19=
EXTT20=
EXTT21=
EXTT22=
EXTT23=
EXTT24=
EXTT25=
EXTT26=
EXTT27=
PLAYORDER=
